%TF.GenerationSoftware,KiCad,Pcbnew,10.0.6*%
%TF.CreationDate,2026-10-07T22:04:07+08:00*%
%TF.ProjectId,halflifeproject,68616c66-6c69-4666-9570-726f6a656374,rev?*%
%TF.SameCoordinates,Original*%
%TF.FileFunction,Soldermask,Bot*%
%TF.FilePolarity,Negative*%
%FSLAX46Y46*%
G04 Gerber Fmt 4.6, Leading zero omitted, Abs format (unit mm)*
G04 Created by KiCad (PCBNEW 10.0.6) date 2026-10-07 22:04:07*
%MOMM*%
%LPD*%
G01*
G04 APERTURE LIST*
%ADD10O,3.800000X2.900000*%
%ADD11R,1.700000X1.700000*%
%ADD12O,1.700000X1.700000*%
%ADD13R,1.500000X1.500000*%
%ADD14C,1.500000*%
%ADD15C,1.700000*%
%ADD16C,4.000000*%
%ADD17C,2.200000*%
%ADD18C,1.524000*%
%ADD19C,1.400000*%
G04 APERTURE END LIST*
D10*
%TO.C,J1*%
X127824000Y-97127000D03*
X127824000Y-120241000D03*
X150176000Y-97127000D03*
X150176000Y-120241000D03*
D11*
X135190000Y-96492000D03*
D12*
X137730000Y-96492000D03*
X140270000Y-96492000D03*
X142810000Y-96492000D03*
%TD*%
D13*
%TO.C,U2*%
X142000000Y-62000000D03*
D14*
X139460000Y-62000000D03*
X136920000Y-62000000D03*
X134380000Y-62000000D03*
%TD*%
D15*
%TO.C,SW2*%
X106880000Y-89580000D03*
D16*
X111960000Y-89580000D03*
D15*
X117040000Y-89580000D03*
D17*
X114500000Y-84500000D03*
X108150000Y-87040000D03*
%TD*%
D18*
%TO.C,U1*%
X173620000Y-72120000D03*
X173620000Y-69580000D03*
X173620000Y-67040000D03*
X173620000Y-64500000D03*
X173620000Y-61960000D03*
X173620000Y-59420000D03*
X173620000Y-56880000D03*
X158380000Y-56880000D03*
X158380000Y-59420000D03*
X158380000Y-61960000D03*
X158380000Y-64500000D03*
X158380000Y-67040000D03*
X158380000Y-69580000D03*
X158380000Y-72120000D03*
%TD*%
D19*
%TO.C,R1*%
X143160000Y-49500000D03*
X135540000Y-49500000D03*
%TD*%
D15*
%TO.C,SW1*%
X108880000Y-65580000D03*
D16*
X113960000Y-65580000D03*
D15*
X119040000Y-65580000D03*
D17*
X116500000Y-60500000D03*
X110150000Y-63040000D03*
%TD*%
D11*
%TO.C,J2*%
X165000000Y-84720000D03*
D15*
X165000000Y-87260000D03*
X165000000Y-89800000D03*
X165000000Y-92340000D03*
X165000000Y-94880000D03*
X165000000Y-97420000D03*
X165000000Y-99960000D03*
X165000000Y-102500000D03*
%TD*%
M02*
